<svg width="640" height="480" xmlns="http://www.w3.org/2000/svg" xmlns:svg="http://www.w3.org/2000/svg" xmlns:xlink="http://www.w3.org/1999/xlink">
 <!-- Created with SVG-edit - http://svg-edit.googlecode.com/ -->
 <g>
  <title>Layer 1</title>
  <path id="svg_32" d="m98.923702,126.180719c0,0 3.339163,-13.805023 0,-18.481426c-3.343097,-4.676402 -4.676403,-7.791382 -12.027283,-10.021424s-4.67247,-1.785607 -10.017491,-1.55749c-5.345022,0.224184 -9.801174,3.11498 -9.801174,4.67247c0,0 -3.339164,0.224184 -4.672469,1.561422c-1.337239,1.337239 -3.563348,7.567199 -3.563348,9.128621s1.113054,12.027283 2.226109,14.253392l-1.32544,0.444435c-1.113054,12.91222 4.452219,14.473643 4.452219,14.473643c2.001925,12.027283 4.007783,6.906445 4.007783,10.021425s-2.005858,2.005858 -2.005858,2.005858s-1.777741,4.896654 -6.22996,6.678328c-4.452218,1.777741 -29.167536,11.350797 -31.177328,13.356655c-2.009791,2.009791 -1.781674,11.358663 -1.781674,11.358663l105.984037,0c0,0 0.23205,-9.348872 -1.777741,-11.358663c-2.013724,-2.009791 -26.729042,-11.578914 -31.181261,-13.356655c-4.452218,-1.781674 -6.229959,-6.678328 -6.229959,-6.678328s-2.005858,1.109122 -2.005858,-2.005858s2.005858,2.005858 4.011716,-10.021425c0,0 5.56134,-1.561423 4.452218,-14.473643l-1.337238,0z" stroke-linecap="null" stroke-linejoin="null" stroke-dasharray="null" stroke-width="2" stroke="#000000" fill="#ffffff"/>
  <path id="svg_25" stroke="#000000" d="m407.481188,346.563097c0.166429,-1.708082 0.262782,-3.433682 0.262782,-5.176801c0,-30.237418 -24.508777,-54.746195 -54.746195,-54.746195c-23.466409,0 -43.429062,14.794612 -51.216161,35.554369c-5.159281,-5.658567 -12.51717,-9.276195 -20.777276,-9.276195c-15.574197,0 -28.19648,12.622283 -28.19648,28.19648c0,1.839472 0.201466,3.635148 0.543082,5.369507c-20.777276,3.424922 -36.675571,21.337877 -36.675571,43.078686c0,24.193439 19.612277,43.796956 43.796956,43.796956l139.055336,0c24.193438,0 43.796956,-19.603517 43.796956,-43.796956c0.008759,-21.469268 -15.460325,-39.250832 -35.843429,-42.999851z" stroke-linecap="null" stroke-linejoin="null" stroke-dasharray="null" stroke-width="2" fill="#ffffff"/>
  <path id="svg_24" stroke="#000000" d="m387.481203,356.563097c0.166429,-1.708082 0.262782,-3.433682 0.262782,-5.176801c0,-30.237418 -24.508777,-54.746195 -54.746195,-54.746195c-23.466409,0 -43.429062,14.794612 -51.216161,35.554369c-5.159281,-5.658567 -12.51717,-9.276195 -20.777276,-9.276195c-15.574197,0 -28.19648,12.622283 -28.19648,28.19648c0,1.839472 0.201466,3.635148 0.543082,5.369507c-20.777276,3.424922 -36.675571,21.337877 -36.675571,43.078686c0,24.193439 19.612277,43.796956 43.796956,43.796956l139.055336,0c24.193438,0 43.796956,-19.603517 43.796956,-43.796956c0.008759,-21.469268 -15.460325,-39.250832 -35.843429,-42.999851z" stroke-linecap="null" stroke-linejoin="null" stroke-dasharray="null" stroke-width="2" fill="#ffffff"/>
  <path id="svg_23" stroke="#000000" d="m367.481195,366.563097c0.166429,-1.708082 0.262782,-3.433682 0.262782,-5.176801c0,-30.237418 -24.508777,-54.746195 -54.746195,-54.746195c-23.466409,0 -43.429062,14.794612 -51.216161,35.554369c-5.159281,-5.658567 -12.51717,-9.276195 -20.777276,-9.276195c-15.574197,0 -28.19648,12.622283 -28.19648,28.19648c0,1.839472 0.201466,3.635148 0.543082,5.369507c-20.777276,3.424922 -36.675571,21.337877 -36.675571,43.078686c0,24.193439 19.612277,43.796956 43.796956,43.796956l139.055336,0c24.193438,0 43.796956,-19.603517 43.796956,-43.796956c0.008759,-21.469268 -15.460325,-39.250832 -35.843429,-42.999851z" stroke-linecap="null" stroke-linejoin="null" stroke-dasharray="null" stroke-width="2" fill="#ffffff"/>
  <rect stroke="#000000" fill="#ffffff" stroke-width="2" x="170" y="20" width="240" height="250" id="svg_1"/>
  <image stroke="null" xlink:href="https://daedaluswallet.io/images/daedalus-logo.svg" id="svg_6" height="50" width="210" y="30" x="190"/>
  <text style="cursor: move;" xml:space="preserve" text-anchor="middle" font-family="serif" font-size="24" id="svg_9" y="420" x="290" stroke-linecap="null" stroke-linejoin="null" stroke-dasharray="null" stroke-width="0" stroke="#000000" fill="#000000">Large object storage</text>
  <path stroke="#000000" id="svg_12" d="m492.650655,28.437431l-13.954463,13.954463l0,127.187443l125.324009,0.323039l15.817602,-14.27781l0,-127.187139l-127.187149,0l0,0.000005zm112.130004,13.726324l0,127.757493m0,-127.757493l15.817602,-13.992488m-15.817602,14.600858l-125.932379,-0.60837" stroke-linecap="null" stroke-linejoin="null" stroke-dasharray="null" stroke-width="2" fill="#fffcfc"/>
  <image stroke="null" xlink:href="https://cdn.freebiesupply.com/logos/large/2x/cardano-logo-svg-vector.svg" id="svg_10" height="140" width="90" y="50" x="500"/>
  <text xml:space="preserve" text-anchor="middle" font-family="serif" font-size="24" id="svg_4" y="70" x="540" stroke-linecap="null" stroke-linejoin="null" stroke-dasharray="null" stroke-width="0" stroke="#000000" fill="#000000">Blockchain</text>
  <rect stroke="#000000" id="svg_16" height="70" width="220" y="190" x="180" stroke-linecap="null" stroke-linejoin="null" stroke-dasharray="null" stroke-width="2" fill="#ffffff"/>
  <text xml:space="preserve" text-anchor="middle" font-family="serif" font-size="24" id="svg_3" y="230" x="290" stroke-linecap="null" stroke-linejoin="null" stroke-dasharray="null" stroke-width="0" stroke="#000000" fill="#000000">GiG Economy dApp</text>
  <text xml:space="preserve" text-anchor="middle" font-family="serif" font-size="24" id="svg_18" y="130" x="290" stroke-linecap="null" stroke-linejoin="null" stroke-dasharray="null" stroke-width="0" stroke="#000000" fill="#000000">Wallet API</text>
  <path stroke="#000000" id="svg_19" d="m412.608071,112.762612l17.916878,-17.916965l0,8.958459l25.966243,0l0,-8.958459l17.91687,17.916965l-17.91687,17.91687l0,-8.958436l-25.966243,0l0,8.958436l-17.916878,-17.91687z" stroke-linecap="null" stroke-linejoin="null" stroke-dasharray="null" stroke-width="2" fill="#ffffff"/>
  <path stroke="#000000" transform="rotate(90 292.18054199218756,163.02891540527347) " id="svg_20" d="m266.347191,163.028959l14.979053,-14.979126l0,7.489543l21.708566,0l0,-7.489543l14.979046,14.979126l-14.979046,14.979046l0,-7.489524l-21.708566,0l0,7.489524l-14.979053,-14.979046z" stroke-linecap="null" stroke-linejoin="null" stroke-dasharray="null" stroke-width="2" fill="#ffffff"/>
  <path id="svg_31" d="m88.923702,126.180719c0,0 3.339163,-13.805023 0,-18.481426c-3.343097,-4.676402 -4.676403,-7.791382 -12.027283,-10.021424s-4.67247,-1.785607 -10.017491,-1.55749c-5.345022,0.224184 -9.801174,3.11498 -9.801174,4.67247c0,0 -3.339164,0.224184 -4.672469,1.561422c-1.337239,1.337239 -3.563348,7.567199 -3.563348,9.128621s1.113054,12.027283 2.226109,14.253392l-1.32544,0.444435c-1.113054,12.91222 4.452219,14.473643 4.452219,14.473643c2.001925,12.027283 4.007783,6.906445 4.007783,10.021425s-2.005858,2.005858 -2.005858,2.005858s-1.777741,4.896654 -6.22996,6.678328c-4.452218,1.777741 -29.167536,11.350797 -31.177328,13.356655c-2.009791,2.009791 -1.781674,11.358663 -1.781674,11.358663l105.984037,0c0,0 0.23205,-9.348872 -1.777741,-11.358663c-2.013724,-2.009791 -26.729042,-11.578914 -31.181261,-13.356655c-4.452218,-1.781674 -6.229959,-6.678328 -6.229959,-6.678328s-2.005858,1.109122 -2.005858,-2.005858s2.005858,2.005858 4.011716,-10.021425c0,0 5.56134,-1.561423 4.452218,-14.473643l-1.337238,0z" stroke-linecap="null" stroke-linejoin="null" stroke-dasharray="null" stroke-width="2" stroke="#000000" fill="#ffffff"/>
  <path id="svg_26" d="m81.686306,129.578943c0,0 3.339164,-13.805024 0,-18.481426c-3.343097,-4.676403 -4.676403,-7.791382 -12.027283,-10.021424s-4.67247,-1.785607 -10.017491,-1.55749c-5.345022,0.224184 -9.801173,3.11498 -9.801173,4.67247c0,0 -3.339164,0.224184 -4.67247,1.561423c-1.337239,1.337239 -3.563348,7.567198 -3.563348,9.128621s1.113055,12.027283 2.226109,14.253392l-1.32544,0.444435c-1.113055,12.91222 4.452218,14.473643 4.452218,14.473643c2.001925,12.027283 4.007783,6.906445 4.007783,10.021424s-2.005858,2.005858 -2.005858,2.005858s-1.777741,4.896654 -6.229959,6.678328c-4.452218,1.777741 -29.167537,11.350797 -31.177328,13.356655c-2.009791,2.009791 -1.781674,11.358663 -1.781674,11.358663l105.984037,0c0,0 0.23205,-9.348872 -1.777741,-11.358663c-2.013724,-2.009791 -26.729043,-11.578914 -31.181261,-13.356655c-4.452218,-1.781674 -6.229959,-6.678328 -6.229959,-6.678328s-2.005858,1.109122 -2.005858,-2.005858s2.005858,2.005858 4.011716,-10.021424c0,0 5.56134,-1.561423 4.452218,-14.473643l-1.337239,0z" stroke-linecap="null" stroke-linejoin="null" stroke-dasharray="null" stroke-width="2" stroke="#000000" fill="#ffffff"/>
  <text xml:space="preserve" text-anchor="middle" font-family="serif" font-size="24" id="svg_28" y="210" x="70" stroke-linecap="null" stroke-linejoin="null" stroke-dasharray="null" stroke-width="0" stroke="#000000" fill="#000000">Freelancers</text>
  <text xml:space="preserve" text-anchor="middle" font-family="serif" font-size="24" id="svg_29" y="240" x="70" stroke-linecap="null" stroke-linejoin="null" stroke-dasharray="null" stroke-width="0" stroke="#000000" fill="#000000">Employers</text>
  <text xml:space="preserve" text-anchor="middle" font-family="serif" font-size="24" id="svg_30" y="270" x="60" stroke-linecap="null" stroke-linejoin="null" stroke-dasharray="null" stroke-width="0" stroke="#000000" fill="#000000">Arbiters</text>
  <path id="svg_33" d="m106.499994,150.000058l19.424448,-19.424543l0,9.712246l28.151106,0l0,-9.712246l19.424439,19.424543l-19.424439,19.424438l0,-9.71222l-28.151106,0l0,9.71222l-19.424448,-19.424438z" stroke-linecap="null" stroke-linejoin="null" stroke-dasharray="null" stroke-width="2" stroke="#000000" fill="#ffffff"/>
  <path transform="rotate(90 291.3550720214844,287.8421020507813) " id="svg_21" d="m257.855066,287.84213l19.424448,-19.424542l0,9.712245l28.151106,0l0,-9.712245l19.424439,19.424542l-19.424439,19.424439l0,-9.712221l-28.151106,0l0,9.712221l-19.424448,-19.424439z" stroke-linecap="null" stroke-linejoin="null" stroke-dasharray="null" stroke-width="2" stroke="#000000" fill="#ffffff"/>
 </g>
</svg>
